<mxfile host="app.diagrams.net" agent="Mozilla/5.0 (Macintosh; Intel Mac OS X 10_15_7) AppleWebKit/537.36 (KHTML, like Gecko) Chrome/131.0.0.0 Safari/537.36" version="26.0.9">
  <diagram id="Ht1M8jgEwFfnCIfOTk4-" name="Page-1">
    <mxGraphModel dx="1468" dy="946" grid="1" gridSize="10" guides="1" tooltips="1" connect="1" arrows="1" fold="1" page="1" pageScale="1" pageWidth="1169" pageHeight="827" math="0" shadow="0">
      <root>
        <mxCell id="0" />
        <mxCell id="1" parent="0" />
        <mxCell id="fisajRVnOYwhML7NOyzB-4" value="desktop" style="sketch=0;outlineConnect=0;gradientColor=none;fontColor=#545B64;strokeColor=none;fillColor=#879196;dashed=0;verticalLabelPosition=bottom;verticalAlign=top;align=center;html=1;fontSize=12;fontStyle=0;aspect=fixed;shape=mxgraph.aws4.illustration_desktop;pointerEvents=1" vertex="1" parent="1">
          <mxGeometry x="130" y="240" width="100" height="91" as="geometry" />
        </mxCell>
        <mxCell id="fisajRVnOYwhML7NOyzB-6" value="" style="sketch=0;points=[[0,0,0],[0.25,0,0],[0.5,0,0],[0.75,0,0],[1,0,0],[0,1,0],[0.25,1,0],[0.5,1,0],[0.75,1,0],[1,1,0],[0,0.25,0],[0,0.5,0],[0,0.75,0],[1,0.25,0],[1,0.5,0],[1,0.75,0]];outlineConnect=0;fontColor=#232F3E;fillColor=#8C4FFF;strokeColor=#ffffff;dashed=0;verticalLabelPosition=bottom;verticalAlign=top;align=center;html=1;fontSize=12;fontStyle=0;aspect=fixed;shape=mxgraph.aws4.resourceIcon;resIcon=mxgraph.aws4.route_53;" vertex="1" parent="1">
          <mxGeometry x="320" y="246.5" width="78" height="78" as="geometry" />
        </mxCell>
        <mxCell id="fisajRVnOYwhML7NOyzB-8" style="edgeStyle=orthogonalEdgeStyle;rounded=0;orthogonalLoop=1;jettySize=auto;html=1;entryX=0;entryY=0.5;entryDx=0;entryDy=0;entryPerimeter=0;" edge="1" parent="1" source="fisajRVnOYwhML7NOyzB-4" target="fisajRVnOYwhML7NOyzB-6">
          <mxGeometry relative="1" as="geometry" />
        </mxCell>
        <mxCell id="fisajRVnOYwhML7NOyzB-10" style="edgeStyle=orthogonalEdgeStyle;rounded=0;orthogonalLoop=1;jettySize=auto;html=1;" edge="1" parent="1" source="fisajRVnOYwhML7NOyzB-9" target="fisajRVnOYwhML7NOyzB-6">
          <mxGeometry relative="1" as="geometry" />
        </mxCell>
        <mxCell id="fisajRVnOYwhML7NOyzB-18" style="edgeStyle=orthogonalEdgeStyle;rounded=0;orthogonalLoop=1;jettySize=auto;html=1;" edge="1" parent="1" source="fisajRVnOYwhML7NOyzB-9" target="fisajRVnOYwhML7NOyzB-15">
          <mxGeometry relative="1" as="geometry" />
        </mxCell>
        <mxCell id="fisajRVnOYwhML7NOyzB-9" value="" style="aspect=fixed;sketch=0;html=1;dashed=0;whitespace=wrap;verticalLabelPosition=bottom;verticalAlign=top;fillColor=#2875E2;strokeColor=#ffffff;points=[[0.005,0.63,0],[0.1,0.2,0],[0.9,0.2,0],[0.5,0,0],[0.995,0.63,0],[0.72,0.99,0],[0.5,1,0],[0.28,0.99,0]];shape=mxgraph.kubernetes.icon2;kubernetesLabel=1;prIcon=kubelet" vertex="1" parent="1">
          <mxGeometry x="491" y="240" width="93.23" height="89.5" as="geometry" />
        </mxCell>
        <mxCell id="fisajRVnOYwhML7NOyzB-13" value="" style="aspect=fixed;sketch=0;html=1;dashed=0;whitespace=wrap;verticalLabelPosition=bottom;verticalAlign=top;fillColor=#2875E2;strokeColor=#ffffff;points=[[0.005,0.63,0],[0.1,0.2,0],[0.9,0.2,0],[0.5,0,0],[0.995,0.63,0],[0.72,0.99,0],[0.5,1,0],[0.28,0.99,0]];shape=mxgraph.kubernetes.icon2;kubernetesLabel=1;prIcon=node" vertex="1" parent="1">
          <mxGeometry x="660" y="100" width="81.25" height="78" as="geometry" />
        </mxCell>
        <mxCell id="fisajRVnOYwhML7NOyzB-15" value="" style="aspect=fixed;sketch=0;html=1;dashed=0;whitespace=wrap;verticalLabelPosition=bottom;verticalAlign=top;fillColor=#2875E2;strokeColor=#ffffff;points=[[0.005,0.63,0],[0.1,0.2,0],[0.9,0.2,0],[0.5,0,0],[0.995,0.63,0],[0.72,0.99,0],[0.5,1,0],[0.28,0.99,0]];shape=mxgraph.kubernetes.icon2;kubernetesLabel=1;prIcon=node" vertex="1" parent="1">
          <mxGeometry x="660" y="245.75" width="81.25" height="78" as="geometry" />
        </mxCell>
        <mxCell id="fisajRVnOYwhML7NOyzB-16" value="" style="aspect=fixed;sketch=0;html=1;dashed=0;whitespace=wrap;verticalLabelPosition=bottom;verticalAlign=top;fillColor=#2875E2;strokeColor=#ffffff;points=[[0.005,0.63,0],[0.1,0.2,0],[0.9,0.2,0],[0.5,0,0],[0.995,0.63,0],[0.72,0.99,0],[0.5,1,0],[0.28,0.99,0]];shape=mxgraph.kubernetes.icon2;kubernetesLabel=1;prIcon=node" vertex="1" parent="1">
          <mxGeometry x="660" y="390" width="81.25" height="78" as="geometry" />
        </mxCell>
        <mxCell id="fisajRVnOYwhML7NOyzB-17" style="edgeStyle=orthogonalEdgeStyle;rounded=0;orthogonalLoop=1;jettySize=auto;html=1;entryX=0.005;entryY=0.63;entryDx=0;entryDy=0;entryPerimeter=0;" edge="1" parent="1" source="fisajRVnOYwhML7NOyzB-9" target="fisajRVnOYwhML7NOyzB-13">
          <mxGeometry relative="1" as="geometry" />
        </mxCell>
        <mxCell id="fisajRVnOYwhML7NOyzB-20" style="edgeStyle=orthogonalEdgeStyle;rounded=0;orthogonalLoop=1;jettySize=auto;html=1;entryX=0.005;entryY=0.63;entryDx=0;entryDy=0;entryPerimeter=0;" edge="1" parent="1" source="fisajRVnOYwhML7NOyzB-9" target="fisajRVnOYwhML7NOyzB-16">
          <mxGeometry relative="1" as="geometry" />
        </mxCell>
        <mxCell id="fisajRVnOYwhML7NOyzB-25" style="edgeStyle=orthogonalEdgeStyle;rounded=0;orthogonalLoop=1;jettySize=auto;html=1;" edge="1" parent="1" source="fisajRVnOYwhML7NOyzB-21" target="fisajRVnOYwhML7NOyzB-23">
          <mxGeometry relative="1" as="geometry" />
        </mxCell>
        <mxCell id="fisajRVnOYwhML7NOyzB-31" style="edgeStyle=orthogonalEdgeStyle;rounded=0;orthogonalLoop=1;jettySize=auto;html=1;" edge="1" parent="1" source="fisajRVnOYwhML7NOyzB-21" target="fisajRVnOYwhML7NOyzB-13">
          <mxGeometry relative="1" as="geometry">
            <Array as="points">
              <mxPoint x="879" y="139" />
            </Array>
          </mxGeometry>
        </mxCell>
        <mxCell id="fisajRVnOYwhML7NOyzB-21" value="" style="sketch=0;outlineConnect=0;fontColor=#232F3E;gradientColor=none;fillColor=#C925D1;strokeColor=none;dashed=0;verticalLabelPosition=bottom;verticalAlign=top;align=center;html=1;fontSize=12;fontStyle=0;aspect=fixed;pointerEvents=1;shape=mxgraph.aws4.rds_instance;" vertex="1" parent="1">
          <mxGeometry x="840" y="168.5" width="78" height="78" as="geometry" />
        </mxCell>
        <mxCell id="fisajRVnOYwhML7NOyzB-27" style="edgeStyle=orthogonalEdgeStyle;rounded=0;orthogonalLoop=1;jettySize=auto;html=1;exitX=0.5;exitY=1;exitDx=0;exitDy=0;exitPerimeter=0;" edge="1" parent="1" source="fisajRVnOYwhML7NOyzB-23" target="fisajRVnOYwhML7NOyzB-16">
          <mxGeometry relative="1" as="geometry" />
        </mxCell>
        <mxCell id="fisajRVnOYwhML7NOyzB-30" style="edgeStyle=orthogonalEdgeStyle;rounded=0;orthogonalLoop=1;jettySize=auto;html=1;" edge="1" parent="1" source="fisajRVnOYwhML7NOyzB-23" target="fisajRVnOYwhML7NOyzB-21">
          <mxGeometry relative="1" as="geometry" />
        </mxCell>
        <mxCell id="fisajRVnOYwhML7NOyzB-23" value="" style="sketch=0;points=[[0,0,0],[0.25,0,0],[0.5,0,0],[0.75,0,0],[1,0,0],[0,1,0],[0.25,1,0],[0.5,1,0],[0.75,1,0],[1,1,0],[0,0.25,0],[0,0.5,0],[0,0.75,0],[1,0.25,0],[1,0.5,0],[1,0.75,0]];outlineConnect=0;fontColor=#232F3E;fillColor=#7AA116;strokeColor=#ffffff;dashed=0;verticalLabelPosition=bottom;verticalAlign=top;align=center;html=1;fontSize=12;fontStyle=0;aspect=fixed;shape=mxgraph.aws4.resourceIcon;resIcon=mxgraph.aws4.s3;" vertex="1" parent="1">
          <mxGeometry x="840" y="323.75" width="78" height="78" as="geometry" />
        </mxCell>
        <mxCell id="fisajRVnOYwhML7NOyzB-24" style="edgeStyle=orthogonalEdgeStyle;rounded=0;orthogonalLoop=1;jettySize=auto;html=1;" edge="1" parent="1" source="fisajRVnOYwhML7NOyzB-13" target="fisajRVnOYwhML7NOyzB-21">
          <mxGeometry relative="1" as="geometry">
            <Array as="points">
              <mxPoint x="879" y="139" />
            </Array>
          </mxGeometry>
        </mxCell>
        <mxCell id="fisajRVnOYwhML7NOyzB-32" style="edgeStyle=orthogonalEdgeStyle;rounded=0;orthogonalLoop=1;jettySize=auto;html=1;entryX=0.5;entryY=1;entryDx=0;entryDy=0;entryPerimeter=0;" edge="1" parent="1" source="fisajRVnOYwhML7NOyzB-16" target="fisajRVnOYwhML7NOyzB-23">
          <mxGeometry relative="1" as="geometry" />
        </mxCell>
      </root>
    </mxGraphModel>
  </diagram>
</mxfile>
